<svg xmlns="http://www.w3.org/2000/svg" width="48" height="46" viewBox="0 0 48 46" fill="none">
<g clip-path="url(#clip0_5243_6023)">
<path d="M39.3061 16.2118C39.3053 15.987 39.3001 15.7633 39.2901 15.5407V2.85077L35.7818 6.35902C32.9105 2.84443 28.5425 0.599609 23.65 0.599609C18.5584 0.599609 14.0351 3.0299 11.1758 6.79358L16.9262 12.6045C17.4898 11.5623 18.2904 10.6671 19.2556 9.991C20.2596 9.20756 21.6821 8.56699 23.6498 8.56699C23.8875 8.56699 24.071 8.59477 24.2058 8.6471C26.6438 8.83953 28.7571 10.185 30.0014 12.1379L25.931 16.2083C31.0867 16.1881 36.9111 16.1762 39.3056 16.2109" fill="#1C3AA9"/>
<path d="M23.5595 0.601562C23.3346 0.602309 23.111 0.607499 22.8884 0.617579H10.1984L13.7067 4.12583C10.1921 6.99714 7.94727 11.3651 7.94727 16.2577C7.94727 21.3492 10.3776 25.8725 14.1412 28.7319L19.9522 22.9814C18.9099 22.4179 18.0148 21.6173 17.3387 20.652C16.5552 19.6481 15.9146 18.2256 15.9146 16.2579C15.9146 16.0201 15.9424 15.8367 15.9948 15.7018C16.1872 13.2638 17.5327 11.1505 19.4855 9.90622L23.556 13.9767C23.5358 8.82094 23.5238 2.99657 23.5586 0.60201" fill="#4285F4"/>
<path d="M7.94727 16.2559C7.94801 16.4807 7.9532 16.7044 7.96328 16.927V29.6169L11.4715 26.1087C14.3428 29.6233 18.7108 31.8681 23.6034 31.8681C28.6949 31.8681 33.2182 29.4378 36.0776 25.6741L30.3271 19.8632C29.7636 20.9054 28.963 21.8006 27.9977 22.4767C26.9938 23.2602 25.5713 23.9007 23.6036 23.9007C23.3658 23.9007 23.1824 23.8729 23.0476 23.8206C20.6095 23.6282 18.4962 22.2827 17.2519 20.3298L21.3224 16.2594C16.1666 16.2796 10.3423 16.2915 7.94771 16.2568" fill="#ADB5BD"/>
<path d="M10.589 37.9317C10.2077 37.9317 9.86578 38.0041 9.56331 38.1487C9.26085 38.2901 9.00443 38.4923 8.79402 38.7553C8.5869 39.0183 8.42746 39.3372 8.31567 39.7119C8.20717 40.0834 8.15293 40.4993 8.15293 40.9595V42.2861C8.15293 42.7496 8.20717 43.1671 8.31567 43.5386C8.42744 43.9101 8.58524 44.2274 8.78909 44.4904C8.99293 44.7534 9.23948 44.9555 9.52877 45.0969C9.81807 45.2383 10.1435 45.309 10.5052 45.309C10.8767 45.309 11.2022 45.2547 11.4816 45.1462C11.7643 45.0378 12.001 44.8816 12.1917 44.6778C12.3824 44.4707 12.5287 44.2208 12.6306 43.9282C12.7358 43.6356 12.7983 43.3036 12.818 42.9321H11.9057C11.8827 43.2181 11.8432 43.463 11.7873 43.6668C11.7314 43.8674 11.6493 44.0334 11.5408 44.1649C11.4356 44.2931 11.2975 44.3884 11.1265 44.4509C10.9589 44.5101 10.7517 44.5397 10.5052 44.5397C10.2422 44.5397 10.0186 44.4821 9.83452 44.3671C9.65042 44.2487 9.50084 44.0876 9.38578 43.8838C9.274 43.68 9.19181 43.4416 9.13921 43.1688C9.08989 42.8959 9.06524 42.6017 9.06524 42.286V40.9497C9.06524 40.6111 9.09483 40.3036 9.154 40.0275C9.21647 39.7513 9.31016 39.5163 9.43509 39.3223C9.56002 39.1283 9.71782 38.9787 9.90851 38.8736C10.0992 38.7651 10.326 38.7108 10.589 38.7108C10.8093 38.7108 10.9983 38.7437 11.1561 38.8094C11.3139 38.8719 11.4454 38.9705 11.5506 39.1053C11.6558 39.2368 11.7364 39.4045 11.7923 39.6083C11.8481 39.8121 11.886 40.0554 11.9057 40.3381H12.818C12.8016 39.9502 12.7407 39.6067 12.6355 39.3075C12.5303 39.0083 12.384 38.7568 12.1966 38.553C12.0092 38.3492 11.7807 38.1946 11.5112 38.0894C11.2449 37.9842 10.9375 37.9316 10.589 37.9316L10.589 37.9317ZM32.8591 37.9317C32.4778 37.9317 32.1359 38.0041 31.8334 38.1487C31.5309 38.2901 31.2745 38.4923 31.0641 38.7553C30.857 39.0183 30.6975 39.3372 30.5857 39.7119C30.4773 40.0834 30.423 40.4993 30.423 40.9595V42.2861C30.423 42.7496 30.4773 43.1671 30.5857 43.5386C30.6975 43.9101 30.8553 44.2274 31.0592 44.4904C31.263 44.7534 31.5096 44.9555 31.7989 45.0969C32.0882 45.2383 32.4136 45.309 32.7753 45.309C33.1468 45.309 33.4722 45.2547 33.7517 45.1462C34.0344 45.0378 34.2711 44.8816 34.4618 44.6778C34.6525 44.4707 34.7988 44.2208 34.9007 43.9282C35.0059 43.6356 35.0684 43.3036 35.0881 42.9321H34.1758C34.1528 43.2181 34.1133 43.463 34.0575 43.6668C34.0016 43.8674 33.9194 44.0334 33.8109 44.1649C33.7057 44.2931 33.5676 44.3884 33.3966 44.4509C33.229 44.5101 33.0218 44.5397 32.7753 44.5397C32.5123 44.5397 32.2887 44.4821 32.1046 44.3671C31.9205 44.2487 31.771 44.0876 31.6559 43.8838C31.5441 43.68 31.4619 43.4416 31.4093 43.1688C31.36 42.8959 31.3354 42.6017 31.3354 42.286V40.9497C31.3354 40.6111 31.365 40.3036 31.4241 40.0275C31.4866 39.7513 31.5803 39.5163 31.7052 39.3223C31.8301 39.1283 31.9879 38.9787 32.1786 38.8736C32.3693 38.7651 32.5961 38.7108 32.8591 38.7108C33.0794 38.7108 33.2684 38.7437 33.4262 38.8094C33.584 38.8719 33.7155 38.9705 33.8207 39.1053C33.9259 39.2368 34.0065 39.4045 34.0623 39.6083C34.1182 39.8121 34.156 40.0554 34.1758 40.3381H35.088C35.0716 39.9502 35.0108 39.6067 34.9056 39.3075C34.8004 39.0083 34.6541 38.7568 34.4667 38.553C34.2793 38.3491 34.0508 38.1946 33.7812 38.0894C33.515 37.9842 33.2076 37.9316 32.8591 37.9316L32.8591 37.9317ZM15.787 38.0304L13.4742 45.2103H14.4013L14.9585 43.3364H17.3847L17.9518 45.2103H18.8789L16.5612 38.0304H15.787ZM19.8552 38.0304V45.2103H20.7576V42.3994H22.1433C22.4885 42.3994 22.7942 42.3518 23.0605 42.2564C23.3268 42.1578 23.5504 42.0164 23.7312 41.8323C23.9153 41.6482 24.0534 41.4214 24.1454 41.1518C24.2407 40.8789 24.2884 40.5699 24.2884 40.2247C24.2884 39.9058 24.2408 39.6132 24.1454 39.3469C24.0534 39.0773 23.9169 38.8456 23.7361 38.6516C23.5553 38.4543 23.3301 38.3015 23.0605 38.193C22.7942 38.0845 22.4885 38.0303 22.1433 38.0303L19.8552 38.0304ZM24.9788 38.0304V38.8095H26.8626V45.2103H27.765V38.8095H29.6537V38.0304H24.9788ZM36.3061 38.0304V45.2103H37.2085V41.8915H40.0983V45.2103H41.0056V38.0304H40.0983V41.1174H37.2085V38.0304H36.3061ZM44.428 38.0304L42.1152 45.2103H43.0423L43.5995 43.3364H46.0257L46.5928 45.2103H47.5199L45.2022 38.0304H44.428ZM20.7575 38.8095H22.1432C22.3635 38.8095 22.5509 38.8489 22.7054 38.9279C22.8632 39.0067 22.9914 39.1119 23.09 39.2435C23.1919 39.375 23.2659 39.5278 23.3119 39.7021C23.3613 39.873 23.3859 40.0505 23.3859 40.2347C23.3859 40.4385 23.3613 40.6259 23.3119 40.7968C23.2659 40.9645 23.1919 41.1108 23.09 41.2357C22.9914 41.3573 22.8632 41.4527 22.7054 41.5217C22.5509 41.5908 22.3635 41.6253 22.1432 41.6253H20.7575V38.8095ZM16.1715 39.2928L17.1528 42.5573H15.1951L16.1715 39.2928ZM44.8125 39.2928L45.7938 42.5573H43.8361L44.8125 39.2928ZM2.33464 39.7761C2.1078 39.7761 1.91218 39.8336 1.7478 39.9487C1.58671 40.0637 1.45192 40.2199 1.34344 40.4171L1.32864 39.8747H0.480469V45.2103H1.35332V41.3934C1.43551 41.1665 1.55222 40.9874 1.70345 40.8559C1.85796 40.7244 2.05357 40.6586 2.29029 40.6586C2.3659 40.6586 2.4333 40.662 2.49247 40.6685C2.55165 40.6718 2.61575 40.68 2.68479 40.6931L2.67986 39.8449C2.66671 39.8383 2.64534 39.8317 2.61575 39.8252C2.58945 39.8153 2.55986 39.8071 2.52699 39.8005C2.49411 39.794 2.45959 39.789 2.42343 39.7857C2.39055 39.7791 2.36097 39.7759 2.33467 39.7759L2.33464 39.7761ZM5.26878 39.7761C5.01564 39.7761 4.77071 39.8204 4.53402 39.9092C4.29732 39.998 4.08692 40.1443 3.90283 40.3481C3.72201 40.5486 3.57572 40.8116 3.46394 41.1371C3.35216 41.4593 3.29627 41.8554 3.29627 42.3256V42.9272C3.29627 43.3348 3.34394 43.6883 3.43928 43.9874C3.53462 44.2866 3.67105 44.5348 3.84857 44.7321C4.02938 44.926 4.248 45.0707 4.50444 45.166C4.76087 45.2614 5.04853 45.3091 5.36744 45.3091C5.59757 45.3091 5.80304 45.286 5.98385 45.24C6.16795 45.194 6.33068 45.1348 6.47205 45.0625C6.61342 44.9869 6.73506 44.9014 6.83697 44.8061C6.93889 44.7107 7.02601 44.6121 7.09833 44.5102L6.64466 43.9579C6.57233 44.0466 6.49507 44.1288 6.41289 44.2044C6.3307 44.2768 6.24029 44.3409 6.14166 44.3968C6.04304 44.4494 5.93454 44.4905 5.81619 44.52C5.69784 44.5496 5.56469 44.5644 5.41676 44.5644C5.01241 44.5644 4.70172 44.4346 4.48474 44.1748C4.27105 43.9151 4.1642 43.4993 4.1642 42.9272V42.8039H7.14273V42.296C7.14273 41.8884 7.10821 41.5283 7.03917 41.216C6.97013 40.9037 6.86 40.6407 6.70877 40.427C6.55754 40.2133 6.36357 40.0522 6.12686 39.9437C5.89015 39.832 5.60415 39.7761 5.26879 39.7761L5.26878 39.7761ZM5.26878 40.5256C5.45945 40.5256 5.61726 40.5601 5.7422 40.6292C5.86713 40.6982 5.96575 40.7952 6.03808 40.9201C6.1137 41.0451 6.16794 41.1947 6.20082 41.3689C6.23698 41.5398 6.25999 41.7289 6.26985 41.936V42.0543H4.16911C4.18226 41.7552 4.21842 41.5069 4.2776 41.3097C4.33677 41.1124 4.41403 40.9563 4.50937 40.8412C4.608 40.7229 4.72142 40.6407 4.84963 40.5947C4.97785 40.5486 5.11757 40.5256 5.26881 40.5256L5.26878 40.5256Z" fill="#ADB5BD"/>
</g>
<defs>
<clipPath id="clip0_5243_6023">
<rect width="48" height="46" fill="white"/>
</clipPath>
</defs>
</svg>