<svg xmlns="http://www.w3.org/2000/svg" width="24" height="24" viewBox="0 0 24 24" fill="none">
  <g clip-path="url(#clip0_5669_6364)">
    <path d="M16.2256 12.4287C16.5738 12.6754 17.0218 12.7332 17.4213 12.5829L18.5784 12.1544L18.1499 11.3572C17.8629 10.8565 17.9808 10.2216 18.4284 9.85723V6.3858L11.9999 1.98438L5.57129 6.3858V9.99866C6.0047 10.3892 6.12083 11.0226 5.85415 11.5415L5.64843 11.9701C6.16542 12.2114 6.71847 12.3663 7.28557 12.4287C7.53853 12.4076 7.78936 12.3661 8.03557 12.3044C8.49406 12.1975 8.9595 12.1231 9.42843 12.0815C9.55163 11.8331 9.69496 11.5951 9.857 11.3701V8.57152C9.857 8.09813 10.2408 7.71437 10.7141 7.71437H13.2856C13.759 7.71437 14.1427 8.09813 14.1427 8.57152V10.8901L16.2256 12.4287ZM11.9999 6.85723C11.0531 6.85723 10.2856 6.08972 10.2856 5.14295C10.2856 4.19617 11.0531 3.42866 11.9999 3.42866C12.9466 3.42866 13.7141 4.19617 13.7141 5.14295C13.7141 5.5976 13.5335 6.03364 13.212 6.35513C12.8906 6.67662 12.4545 6.85723 11.9999 6.85723Z" fill="white"/>
    <path d="M10.7139 10.4999C11.467 9.95839 12.4598 9.88392 13.2853 10.307V8.57129H10.7139V10.4999Z" fill="white"/>
    <path d="M11.9997 5.99993C12.4731 5.99993 12.8569 5.61617 12.8569 5.14279C12.8569 4.6694 12.4731 4.28564 11.9997 4.28564C11.5263 4.28564 11.1426 4.6694 11.1426 5.14279C11.1426 5.61617 11.5263 5.99993 11.9997 5.99993Z" fill="white"/>
    <path d="M4.09712 6.35572L11.7557 1.1143C11.9026 1.01238 12.0974 1.01238 12.2443 1.1143L19.9028 6.35144C20.0981 6.48515 20.3648 6.43527 20.4986 6.24001C20.6294 6.04556 20.5797 5.7821 20.3871 5.64858L12.2443 0.0771534C12.1726 0.0271345 12.0874 0.000217425 12 1.05275e-05C11.9138 -0.000612422 11.8297 0.0264262 11.76 0.0771534L3.61712 5.64858C3.52567 5.71231 3.46264 5.80916 3.44141 5.91858C3.41821 6.03138 3.44137 6.14877 3.50569 6.2443C3.63921 6.43689 3.90267 6.48653 4.09712 6.35572Z" fill="white"/>
    <path d="M4.51329 18.9127C4.26 18.7975 3.96124 18.9086 3.84472 19.1612L3.36901 20.1898C3.25066 20.4431 3.36003 20.7443 3.61329 20.8627C3.86655 20.981 4.1678 20.8716 4.28615 20.6184L4.76186 19.5898C4.81307 19.4649 4.81307 19.3248 4.76186 19.1998C4.72156 19.0742 4.63179 18.9705 4.51329 18.9127Z" fill="white"/>
    <path d="M5.11714 10.7956C5.07457 10.6843 4.98761 10.5958 4.87714 10.5513L0 8.57129V20.1427H0.321429C0.477856 20.1407 0.620772 20.0537 0.694286 19.9156L5.09143 11.1427C5.14872 11.0359 5.15807 10.9097 5.11714 10.7956Z" fill="white"/>
    <path d="M7.02851 19.337C6.96928 19.1764 6.84919 19.0455 6.69422 18.9727C6.60911 18.9355 6.51713 18.9165 6.42422 18.917C6.3483 18.9173 6.27296 18.9303 6.20137 18.9556C6.04184 19.0149 5.91238 19.1352 5.84137 19.2899L5.14279 20.8456C5.0787 21.0036 5.0787 21.1804 5.14279 21.3384C5.20049 21.499 5.32123 21.629 5.47708 21.6984C5.63321 21.7646 5.80952 21.7646 5.96565 21.6984C6.12629 21.6392 6.25716 21.5191 6.32994 21.3641L7.04565 19.8084C7.10076 19.6549 7.09462 19.4861 7.02851 19.337Z" fill="white"/>
    <path d="M17.7211 13.3673C17.0514 13.6182 16.3007 13.5186 15.7197 13.1016L13.1097 11.1987C12.4836 10.7412 11.6212 10.7916 11.0526 11.3187C10.6337 11.7063 10.297 12.1741 10.0626 12.6944L9.06827 14.8973C8.93135 15.2144 9.05508 15.5838 9.35541 15.7544H9.38541C9.65998 15.888 9.98999 15.8213 10.1911 15.5916L11.8797 13.7101L11.7254 13.573C11.5599 13.4141 11.549 13.153 11.7006 12.9808C11.8521 12.8086 12.1124 12.7862 12.2911 12.9301L18.4883 18.4287L21.3426 17.2459L18.9897 12.8916L17.7211 13.3673Z" fill="white"/>
    <path d="M19.1096 10.4186C19.0037 10.4557 18.9193 10.5371 18.8782 10.6415C18.8443 10.733 18.8522 10.8348 18.8996 10.9201L23.301 19.0629C23.3808 19.1941 23.5247 19.2726 23.6782 19.2686H23.9996V8.5415L19.1096 10.4186Z" fill="white"/>
    <path d="M12.5146 14.3098L10.8217 16.1955C10.5321 16.5268 10.1131 16.716 9.67313 16.7141C9.45062 16.7144 9.23091 16.6646 9.03027 16.5684H8.98741C8.25256 16.2015 7.94 15.3188 8.28027 14.5713L9.00027 12.9941C8.73027 13.037 8.47312 13.0884 8.23312 13.1398C7.92284 13.2188 7.60565 13.2676 7.28598 13.2855C6.58431 13.2167 5.89989 13.0268 5.26312 12.7241L2.20312 18.8184L2.90598 19.1527L3.06455 18.8013C3.38073 18.1186 4.19025 17.8213 4.87313 18.137C5.06108 18.2223 5.22572 18.3517 5.35313 18.5141C5.79551 18.0482 6.48762 17.9201 7.06741 18.197C7.53867 18.414 7.86329 18.8603 7.92455 19.3755C8.6463 19.2316 9.36516 19.6356 9.61741 20.327C9.64536 20.4095 9.66686 20.494 9.6817 20.5798C9.92897 20.5411 10.1822 20.5753 10.4103 20.6784C10.7222 20.821 10.9642 21.0823 11.0826 21.4042C11.2009 21.7262 11.1856 22.082 11.0403 22.3927L10.7574 22.9713L11.906 23.9013C12.0703 24.0134 12.2825 24.0277 12.4604 23.9387C12.6384 23.8498 12.7542 23.6714 12.7631 23.4727C12.7644 23.3272 12.7055 23.1876 12.6003 23.087L12.1203 22.607C12.0391 22.5265 11.9935 22.417 11.9935 22.3027C11.9935 22.1884 12.0391 22.0789 12.1203 21.9984C12.2007 21.9173 12.3103 21.8716 12.4246 21.8716C12.5388 21.8716 12.6484 21.9173 12.7288 21.9984L13.2088 22.4784L13.5774 22.8513C13.7688 23.0314 14.0674 23.0314 14.2588 22.8513C14.3494 22.7619 14.4004 22.6399 14.4004 22.5127C14.4004 22.3854 14.3494 22.2635 14.2588 22.1741L12.5446 20.4598C12.3765 20.2918 12.3765 20.0193 12.5446 19.8513C12.7126 19.6832 12.9851 19.6832 13.1531 19.8513L14.8674 21.5655L14.9146 21.6127C15.0497 21.7483 15.2332 21.8245 15.4246 21.8245C15.6159 21.8245 15.7995 21.7483 15.9346 21.6127C16.0778 21.4724 16.1557 21.2784 16.1492 21.078C16.1427 20.8776 16.0524 20.6891 15.9003 20.5584L13.856 18.767C13.7841 18.7004 13.7372 18.6111 13.7231 18.5141C13.7213 18.5013 13.7213 18.4883 13.7231 18.4755C13.7161 18.3671 13.7532 18.2605 13.826 18.1798C13.8642 18.1384 13.9091 18.1036 13.9588 18.077C14.0394 18.0407 14.1292 18.0302 14.216 18.047C14.2374 18.0449 14.2589 18.0449 14.2803 18.047C14.3359 18.0644 14.3871 18.0936 14.4303 18.1327L14.9231 18.5613L17.006 20.387C17.3335 20.6499 17.81 20.6081 18.0868 20.2923C18.3636 19.9764 18.3424 19.4986 18.0388 19.2084L12.5146 14.3098Z" fill="white"/>
    <path d="M10.0325 21.4586C9.9767 21.4364 9.91683 21.4261 9.85681 21.4286C9.68942 21.4282 9.53711 21.5252 9.46681 21.6771L9.06824 22.5343L8.93538 22.8214C8.89133 22.927 8.89133 23.0458 8.93538 23.1514C8.97496 23.2578 9.05511 23.3441 9.15824 23.3914C9.26209 23.4408 9.38143 23.4464 9.48942 23.4069C9.59742 23.3674 9.68501 23.2861 9.73252 23.1814L10.2682 22.02C10.312 21.9143 10.3117 21.7956 10.2674 21.6901C10.2232 21.5847 10.1386 21.5013 10.0325 21.4586Z" fill="white"/>
    <path d="M8.46005 20.2627C8.37606 20.2217 8.28353 20.2011 8.19005 20.2027C8.11413 20.203 8.03879 20.216 7.96719 20.2413C7.80841 20.3019 7.67934 20.4217 7.60719 20.5756L7.06719 21.7413C6.91689 22.0644 7.05696 22.4481 7.38005 22.5984C7.70314 22.7487 8.08689 22.6087 8.23719 22.2856L8.27148 22.2127L8.76862 21.1284C8.84198 20.9738 8.84971 20.796 8.79005 20.6356C8.73591 20.4713 8.61658 20.3364 8.46005 20.2627Z" fill="white"/>
  </g>
  <defs>
    <clipPath id="clip0_5669_6364">
      <rect width="24" height="24" fill="white"/>
    </clipPath>
  </defs>
</svg>