<svg xmlns="http://www.w3.org/2000/svg" width="24" height="24" viewBox="0 0 24 24" fill="none">
<g clip-path="url(#clip0_6359_532)">
<path d="M23.5308 6.01663L12.234 2.0308C12.0826 1.97736 11.9175 1.97736 11.7661 2.0308L0.469219 6.01663C0.188344 6.11572 0.000375562 6.38103 5.61892e-07 6.67888C-0.000374438 6.97672 0.186985 7.24246 0.467626 7.34221L11.7645 11.3583C11.8407 11.3854 11.9204 11.399 12 11.399C12.0797 11.399 12.1593 11.3854 12.2355 11.3583L23.5324 7.34221C23.813 7.24246 24.0003 6.97672 24 6.67888C23.9996 6.38103 23.8117 6.11572 23.5308 6.01663Z" fill="white"/>
<path d="M22.3115 15.4017V9.26855L20.9053 9.76848V15.4017C20.4817 15.6455 20.1963 16.1023 20.1963 16.6261C20.1963 17.1499 20.4817 17.6067 20.9053 17.8505V21.306C20.9053 21.6943 21.2201 22.0091 21.6084 22.0091C21.9967 22.0091 22.3115 21.6943 22.3115 21.306V17.8506C22.7351 17.6068 23.0205 17.1499 23.0205 16.6261C23.0205 16.1023 22.7351 15.6455 22.3115 15.4017Z" fill="white"/>
<path d="M11.9997 12.8054C11.7583 12.8054 11.5206 12.7644 11.2931 12.6835L4.94238 10.4258V13.5199C4.94238 14.2769 5.73209 14.9171 7.28955 15.4226C8.6471 15.8632 10.3199 16.1059 11.9997 16.1059C13.6795 16.1059 15.3522 15.8632 16.7098 15.4226C18.2673 14.9171 19.057 14.2769 19.057 13.5199V10.4258L12.7063 12.6835C12.4788 12.7644 12.2411 12.8054 11.9997 12.8054Z" fill="white"/>
</g>
<defs>
<clipPath id="clip0_6359_532">
<rect width="24" height="24" fill="white"/>
</clipPath>
</defs>
</svg>