<svg xmlns="http://www.w3.org/2000/svg" width="44" height="32" viewBox="0 0 44 32" fill="none">
  <path d="M9.96686 12.7615C9.47937 12.7615 9.01154 12.8342 8.54591 12.9005C8.69675 12.4045 8.85196 11.9001 9.10117 11.4469C9.35039 10.7885 9.73951 10.2178 10.1264 9.64275C10.45 9.02071 11.0206 8.5996 11.4403 8.06733C11.8797 7.55003 12.4787 7.20588 12.9531 6.77622C13.4187 6.32732 14.0286 6.10287 14.5139 5.78651C15.0211 5.5022 15.4627 5.18798 15.9349 5.03834L17.1132 4.56379L18.1494 4.14268L17.0891 0L15.784 0.307815C15.3665 0.41042 14.8571 0.530126 14.2778 0.673346C13.6854 0.780226 13.0536 1.07308 12.3497 1.34028C11.6545 1.64382 10.85 1.84903 10.1024 2.33641C9.35039 2.8024 8.48251 3.19145 7.71738 3.81563C6.9763 4.45905 6.08219 5.01697 5.42199 5.83567C4.70058 6.60093 3.98792 7.40468 3.43484 8.31957C2.79431 9.19172 2.35928 10.1494 1.90021 11.0963C1.48485 12.0433 1.15038 13.0116 0.877117 13.9522C0.359015 15.8375 0.12729 17.6289 0.0376603 19.1615C-0.0366667 20.6963 0.00705505 21.9725 0.0988706 22.8959C0.131662 23.332 0.192873 23.7552 0.236594 24.0481L0.291246 24.4072L0.348084 24.3944C0.736904 26.1704 1.63198 27.8024 2.92977 29.1018C4.22756 30.4011 5.87504 31.3147 7.68161 31.7367C9.48819 32.1587 11.38 32.072 13.1383 31.4866C14.8966 30.9012 16.4495 29.841 17.6173 28.4287C18.7851 27.0163 19.5202 25.3095 19.7374 23.5058C19.9546 21.702 19.6452 19.875 18.8448 18.236C18.0445 16.597 16.786 15.2131 15.2149 14.2443C13.6438 13.2755 11.8243 12.7614 9.96686 12.7615ZM34.0138 12.7615C33.5263 12.7615 33.0585 12.8342 32.5928 12.9005C32.7437 12.4045 32.8989 11.9001 33.1481 11.4469C33.3973 10.7885 33.7864 10.2178 34.1734 9.64275C34.4969 9.02071 35.0675 8.5996 35.4872 8.06733C35.9266 7.55003 36.5256 7.20588 37 6.77622C37.4656 6.32732 38.0756 6.10287 38.5609 5.78651C39.068 5.5022 39.5096 5.18798 39.9818 5.03834L41.1601 4.56379L42.1963 4.14268L41.1361 0L39.831 0.307815C39.4134 0.41042 38.9041 0.530126 38.3248 0.673346C37.7323 0.780226 37.1006 1.07308 36.3966 1.34028C35.7036 1.64596 34.897 1.84903 34.1493 2.33854C33.3973 2.80454 32.5295 3.19359 31.7643 3.81777C31.0232 4.46119 30.1291 5.0191 29.4689 5.83567C28.7475 6.60093 28.0349 7.40468 27.4818 8.31957C26.8413 9.19172 26.4062 10.1494 25.9471 11.0963C25.5318 12.0433 25.1973 13.0116 24.9241 13.9522C24.406 15.8375 24.1742 17.6289 24.0846 19.1615C24.0103 20.6963 24.054 21.9725 24.1458 22.8959C24.1786 23.332 24.2398 23.7552 24.2835 24.0481L24.3382 24.4072L24.395 24.3944C24.7838 26.1704 25.6789 27.8024 26.9767 29.1018C28.2745 30.4011 29.922 31.3147 31.7286 31.7367C33.5351 32.1587 35.427 32.072 37.1853 31.4866C38.9436 30.9012 40.4964 29.841 41.6642 28.4287C42.8321 27.0163 43.5671 25.3095 43.7843 23.5058C44.0016 21.702 43.6921 19.875 42.8918 18.236C42.0915 16.597 40.8329 15.2131 39.2618 14.2443C37.6907 13.2755 35.8712 12.7614 34.0138 12.7615Z" fill="#EF3F23"/>
</svg>