<svg xmlns="http://www.w3.org/2000/svg" width="45" height="33" viewBox="0 0 45 33" fill="none">
<path d="M10.2278 13.0956C9.72756 13.0956 9.24749 13.1702 8.76966 13.2382C8.92445 12.7293 9.08372 12.2116 9.33946 11.7466C9.5952 11.071 9.99451 10.4853 10.3916 9.89522C10.7236 9.25689 11.3091 8.82476 11.7398 8.27856C12.1907 7.74771 12.8054 7.39454 13.2922 6.95364C13.77 6.49298 14.3959 6.26266 14.8939 5.93801C15.4144 5.64626 15.8675 5.32381 16.3521 5.17026L17.5612 4.68328L18.6246 4.25115L17.5366 0L16.1973 0.315874C15.7688 0.421166 15.2461 0.544006 14.6517 0.690976C14.0437 0.800654 13.3954 1.10117 12.673 1.37537C11.9597 1.68686 11.1341 1.89744 10.3669 2.39758C9.5952 2.87578 8.7046 3.27501 7.91944 3.91553C7.15895 4.5758 6.24143 5.14832 5.56395 5.98846C4.82365 6.77376 4.09233 7.59855 3.52477 8.5374C2.86748 9.43238 2.42106 10.4151 1.94996 11.3869C1.52373 12.3586 1.1805 13.3523 0.900082 14.3175C0.368415 16.2522 0.130623 18.0904 0.0386463 19.6632C-0.0376267 21.2382 0.00723977 22.5478 0.101459 23.4954C0.135109 23.9429 0.197922 24.3772 0.242789 24.6777L0.298872 25.0462L0.357198 25.0331C0.756198 26.8556 1.67471 28.5304 3.00648 29.8637C4.33825 31.1971 6.02886 32.1346 7.88274 32.5676C9.73662 33.0007 11.678 32.9118 13.4823 32.311C15.2867 31.7103 16.8802 30.6223 18.0786 29.173C19.277 27.7237 20.0312 25.9722 20.2542 24.1212C20.4771 22.2702 20.1595 20.3953 19.3382 18.7134C18.517 17.0316 17.2255 15.6114 15.6133 14.6172C14.001 13.6231 12.1339 13.0955 10.2278 13.0956ZM34.9044 13.0956C34.4041 13.0956 33.924 13.1702 33.4462 13.2382C33.601 12.7293 33.7603 12.2116 34.016 11.7466C34.2718 11.071 34.6711 10.4853 35.0681 9.89522C35.4001 9.25689 35.9857 8.82476 36.4164 8.27856C36.8673 7.74771 37.4819 7.39454 37.9687 6.95364C38.4466 6.49298 39.0725 6.26266 39.5705 5.93801C40.0909 5.64626 40.5441 5.32381 41.0286 5.17026L42.2378 4.68328L43.3011 4.25115L42.2131 0L40.8738 0.315874C40.4454 0.421166 39.9227 0.544006 39.3282 0.690976C38.7203 0.800654 38.0719 1.10117 37.3496 1.37537C36.6385 1.68905 35.8107 1.89744 35.0435 2.39977C34.2718 2.87797 33.3812 3.2772 32.596 3.91773C31.8355 4.57799 30.918 5.15052 30.2405 5.98846C29.5002 6.77376 28.7689 7.59855 28.2013 8.5374C27.544 9.43238 27.0976 10.4151 26.6265 11.3869C26.2003 12.3586 25.857 13.3523 25.5766 14.3175C25.045 16.2522 24.8072 18.0904 24.7152 19.6632C24.6389 21.2382 24.6838 22.5478 24.778 23.4954C24.8117 23.9429 24.8745 24.3772 24.9193 24.6777L24.9754 25.0462L25.0337 25.0331C25.4327 26.8556 26.3513 28.5304 27.683 29.8637C29.0148 31.1971 30.7054 32.1346 32.5593 32.5676C34.4132 33.0007 36.3546 32.9118 38.1589 32.311C39.9632 31.7103 41.5567 30.6223 42.7551 29.173C43.9535 27.7237 44.7078 25.9722 44.9307 24.1212C45.1536 22.2702 44.8361 20.3953 44.0148 18.7134C43.1935 17.0316 41.9021 15.6114 40.2898 14.6172C38.6776 13.6231 36.8104 13.0955 34.9044 13.0956Z" fill="#EF3F23"/>
</svg>