<svg xmlns="http://www.w3.org/2000/svg" width="24" height="25" viewBox="0 0 24 25" fill="none">
  <path d="M21.4286 0.164062H2.57143C1.125 0.164062 0 1.34263 0 2.73549V21.5926C0 23.0391 1.125 24.1641 2.57143 24.1641H21.4286C22.8214 24.1641 24 23.0391 24 21.5926V2.73549C24 1.34263 22.8214 0.164062 21.4286 0.164062ZM18.8036 8.68192C18.8036 8.84263 18.8036 9.00335 18.8036 9.16406C18.8036 13.7712 15.2679 19.1283 8.78571 19.1283C6.80357 19.1283 4.98214 18.5926 3.42857 17.5748C3.69643 17.6283 3.96429 17.6283 4.23214 17.6283C5.89286 17.6283 7.39286 17.0391 8.625 16.1283C7.07143 16.0748 5.78571 15.0569 5.30357 13.6641C5.89286 13.7712 6.375 13.7712 6.91071 13.6105C5.30357 13.2891 4.125 11.8962 4.125 10.1819V10.1283C4.55357 10.3962 5.08929 10.5569 5.67857 10.5569C4.71429 9.91406 4.125 8.84263 4.125 7.66406C4.125 6.96763 4.28571 6.37835 4.60714 5.84263C6.32143 7.98549 8.94643 9.37835 11.8393 9.53906C11.3571 7.18192 13.125 5.19978 15.2679 5.19978C16.2857 5.19978 17.1964 5.62835 17.8393 6.32478C18.6429 6.16406 19.3929 5.89621 20.0893 5.46763C19.8214 6.32478 19.2321 6.96763 18.5357 7.39621C19.2321 7.34263 19.9286 7.12835 20.5714 6.86049C20.0893 7.55692 19.4464 8.19978 18.8036 8.68192Z" fill="white"/>
</svg>