<svg xmlns="http://www.w3.org/2000/svg" width="24" height="25" viewBox="0 0 24 25" fill="none">
  <path d="M21.4286 0.164062H2.57143C1.125 0.164062 0 1.34263 0 2.73549V21.5926C0 23.0391 1.125 24.1641 2.57143 24.1641H9.91071V16.0212H6.53571V12.1641H9.91071V9.2712C9.91071 5.94978 11.8929 4.07478 14.8929 4.07478C16.3929 4.07478 17.8929 4.34263 17.8929 4.34263V7.61049H16.2321C14.5714 7.61049 14.0357 8.62835 14.0357 9.69978V12.1641H17.7321L17.1429 16.0212H14.0357V24.1641H21.4286C22.8214 24.1641 24 23.0391 24 21.5926V2.73549C24 1.34263 22.8214 0.164062 21.4286 0.164062Z" fill="white"/>
</svg>