<svg xmlns="http://www.w3.org/2000/svg" width="32" height="32" viewBox="0 0 32 32" fill="none">
  <circle cx="16" cy="16" r="16" fill="#343A40"/>
  <path d="M23.0944 12.5527C22.6155 12.7655 22.1101 12.8985 21.578 12.9783C22.1101 12.6591 22.5357 12.1536 22.722 11.5417C22.2165 11.8344 21.6578 12.0472 21.0459 12.1802C20.567 11.6747 19.8753 11.3555 19.1303 11.3555C17.6937 11.3555 16.5231 12.5261 16.5231 13.9627C16.5231 14.1756 16.5497 14.3618 16.6029 14.548C14.4479 14.4416 12.5058 13.404 11.2022 11.8077C10.9893 12.2068 10.8563 12.6325 10.8563 13.1114C10.8563 14.0159 11.3086 14.8141 12.0269 15.2929C11.6012 15.2663 11.2022 15.1599 10.8297 14.9737V15.0003C10.8297 16.2773 11.7343 17.3415 12.9315 17.5809C12.7186 17.6342 12.4792 17.6608 12.2397 17.6608C12.0801 17.6608 11.8939 17.6342 11.7343 17.6075C12.0801 18.6451 13.0379 19.4167 14.1819 19.4167C13.2773 20.1084 12.1599 20.5341 10.9361 20.5341C10.7233 20.5341 10.5105 20.5341 10.3242 20.5074C11.4948 21.2524 12.8517 21.6781 14.3415 21.6781C19.1569 21.6781 21.7908 17.6874 21.7908 14.2288C21.7908 14.1223 21.7908 13.9893 21.7908 13.8829C22.2963 13.537 22.7486 13.0848 23.0944 12.5527Z" fill="white"/>
</svg>