<svg xmlns="http://www.w3.org/2000/svg" width="24" height="25" viewBox="0 0 24 25" fill="none">
  <path d="M22.2857 0.164062H1.66071C0.75 0.164062 0 0.967634 0 1.93192V22.4498C0 23.4141 0.75 24.1641 1.66071 24.1641H22.2857C23.1964 24.1641 24 23.4141 24 22.4498V1.93192C24 0.967634 23.1964 0.164062 22.2857 0.164062ZM7.23214 20.7355H3.69643V9.32478H7.23214V20.7355ZM5.46429 7.71763C4.28571 7.71763 3.375 6.80692 3.375 5.68192C3.375 4.55692 4.28571 3.59263 5.46429 3.59263C6.58929 3.59263 7.5 4.55692 7.5 5.68192C7.5 6.80692 6.58929 7.71763 5.46429 7.71763ZM20.5714 20.7355H16.9821V15.1641C16.9821 13.8783 16.9821 12.1641 15.1607 12.1641C13.2857 12.1641 13.0179 13.6105 13.0179 15.1105V20.7355H9.48214V9.32478H12.8571V10.8783H12.9107C13.3929 9.96763 14.5714 9.00335 16.2857 9.00335C19.875 9.00335 20.5714 11.4141 20.5714 14.4676V20.7355Z" fill="white"/>
</svg>