<svg xmlns="http://www.w3.org/2000/svg" width="24" height="25" viewBox="0 0 24 25" fill="none">
  <rect y="0.164062" width="24" height="24" rx="1.5" fill="white"/>
  <path d="M21.8008 7.86067C21.8008 7.86067 21.6055 6.48827 21.0039 5.88566C20.2422 5.09255 19.3906 5.08866 19 5.04201C16.2031 4.83984 12.0039 4.83984 12.0039 4.83984H11.9961C11.9961 4.83984 7.79688 4.83984 5 5.04201C4.60938 5.08866 3.75781 5.09255 2.99609 5.88566C2.39453 6.48827 2.20312 7.86067 2.20312 7.86067C2.20312 7.86067 2 9.47411 2 11.0837V12.5921C2 14.2017 2.19922 15.8151 2.19922 15.8151C2.19922 15.8151 2.39453 17.1875 2.99219 17.7901C3.75391 18.5832 4.75391 18.556 5.19922 18.6416C6.80078 18.7932 12 18.8398 12 18.8398C12 18.8398 16.2031 18.8321 19 18.6338C19.3906 18.5871 20.2422 18.5832 21.0039 17.7901C21.6055 17.1875 21.8008 15.8151 21.8008 15.8151C21.8008 15.8151 22 14.2056 22 12.5921V11.0837C22 9.47411 21.8008 7.86067 21.8008 7.86067ZM9.93359 14.4233V8.82874L15.3359 11.6357L9.93359 14.4233Z" fill="#111827"/>
</svg>