<svg xmlns="http://www.w3.org/2000/svg" width="32" height="32" viewBox="0 0 32 32" fill="none">
  <path fill-rule="evenodd" clip-rule="evenodd" d="M20.9499 22.3638C21.3404 22.7544 21.9736 22.7544 22.3641 22.3638C22.7546 21.9733 22.7546 21.3401 22.3641 20.9496L17.4144 15.9999L22.3641 11.0502C22.7546 10.6597 22.7546 10.0265 22.3641 9.63597C21.9736 9.24545 21.3404 9.24545 20.9499 9.63597L16.0002 14.5857L11.0504 9.63591C10.6599 9.24539 10.0267 9.24539 9.63617 9.63591C9.24564 10.0264 9.24564 10.6596 9.63617 11.0501L14.5859 15.9999L9.63616 20.9497C9.24563 21.3402 9.24563 21.9734 9.63616 22.3639C10.0267 22.7544 10.6598 22.7544 11.0504 22.3639L16.0002 17.4141L20.9499 22.3638Z" fill="#28303F"/>
</svg>