<svg xmlns="http://www.w3.org/2000/svg" width="24" height="24" viewBox="0 0 24 24" fill="none">
  <g clip-path="url(#clip0_5669_6352)">
    <path d="M23.25 17.5H16.5V13.25V3.75C16.5 3.336 16.164 3 15.75 3C15.336 3 15 3.336 15 3.75V12.5H13.972L11.619 5.835C11.232 4.737 10.19 4 9.026 4H5.75C5.336 4 5 4.336 5 4.75V10H2.75C1.233 10 0 11.233 0 12.75V17.25C0 18.215 0.785 19 1.75 19H2.051C2.283 20.14 3.293 21 4.5 21C5.707 21 6.717 20.14 6.949 19H9.05C9.282 20.14 10.292 21 11.499 21C12.706 21 13.716 20.14 13.948 19H15.749H23.249C23.663 19 23.999 18.664 23.999 18.25C23.999 17.836 23.664 17.5 23.25 17.5ZM6.5 5.5H9.026C9.555 5.5 10.029 5.835 10.205 6.334L12.381 12.5H7.75C7.061 12.5 6.5 11.939 6.5 11.25V10.75V5.5ZM4.5 19.5C3.948 19.5 3.5 19.051 3.5 18.5C3.5 17.949 3.948 17.5 4.5 17.5C5.052 17.5 5.5 17.949 5.5 18.5C5.5 19.051 5.052 19.5 4.5 19.5ZM11.5 19.5C10.948 19.5 10.5 19.051 10.5 18.5C10.5 17.949 10.948 17.5 11.5 17.5C12.052 17.5 12.5 17.949 12.5 18.5C12.5 19.051 12.052 19.5 11.5 19.5Z" fill="white"/>
    <path d="M21.75 11V11.75C21.75 12.164 21.414 12.5 21 12.5C20.586 12.5 20.25 12.164 20.25 11.75V11H18.5C18.224 11 18 11.224 18 11.5V15.5C18 15.776 18.224 16 18.5 16H23.5C23.776 16 24 15.776 24 15.5V11.5C24 11.224 23.776 11 23.5 11H21.75Z" fill="white"/>
    <path d="M21.75 5V5.75C21.75 6.164 21.414 6.5 21 6.5C20.586 6.5 20.25 6.164 20.25 5.75V5H18.5C18.224 5 18 5.224 18 5.5V9.5C18 9.776 18.224 10 18.5 10H23.5C23.776 10 24 9.776 24 9.5V5.5C24 5.224 23.776 5 23.5 5H21.75Z" fill="white"/>
  </g>
  <defs>
    <clipPath id="clip0_5669_6352">
      <rect width="24" height="24" fill="white"/>
    </clipPath>
  </defs>
</svg>