<svg xmlns="http://www.w3.org/2000/svg" width="24" height="24" viewBox="0 0 24 24" fill="none">
  <path d="M10.8745 3.75C9.84102 3.75 8.89325 4.58935 9.00024 5.66015L9.75098 13.1623C9.80781 13.7304 10.2565 14.25 10.8745 14.25H13.1252C13.7433 14.25 14.1919 13.7303 14.2488 13.1623L14.9966 5.66015C15.1037 4.58933 14.1587 3.75 13.1252 3.75H10.8745ZM15.7495 5.59129C15.7477 5.6392 15.7484 5.68626 15.7437 5.73485L14.9966 13.237C14.9053 14.1493 14.164 15 13.1253 15H10.8745C9.8359 15 9.09445 14.1494 9.00318 13.237L8.25318 5.73485C8.24834 5.68652 8.24928 5.63961 8.24732 5.59203C7.97819 5.69918 7.71636 5.82055 7.45924 5.94947L8.24732 13.8377C8.25383 13.8875 8.25027 13.9382 8.23684 13.9866C8.22341 14.0351 8.20039 14.0803 8.16915 14.1197C8.1379 14.1591 8.09906 14.1918 8.05494 14.2159C8.01082 14.24 7.96231 14.255 7.91228 14.26C7.86225 14.265 7.81173 14.2599 7.76371 14.245C7.71569 14.2301 7.67115 14.2058 7.63272 14.1733C7.5943 14.1409 7.56277 14.1011 7.54002 14.0563C7.51726 14.0114 7.50374 13.9625 7.50025 13.9124L6.74366 6.34714C3.82395 8.12086 1.87525 11.3251 1.87525 15V15.7492H22.1245V15C22.1245 11.3246 20.1743 8.12006 17.2532 6.34641L16.4966 13.9124C16.4954 13.964 16.4835 14.0148 16.4617 14.0617C16.4399 14.1085 16.4087 14.1504 16.37 14.1846C16.3312 14.2188 16.2859 14.2446 16.2367 14.2605C16.1875 14.2763 16.1356 14.2818 16.0842 14.2767C16.0328 14.2715 15.983 14.2558 15.938 14.2305C15.8929 14.2052 15.8536 14.1708 15.8224 14.1296C15.7913 14.0884 15.769 14.0412 15.7569 13.9909C15.7449 13.9407 15.7434 13.8885 15.7524 13.8377L16.5405 5.95021C16.2824 5.82081 16.0197 5.69878 15.7495 5.59129ZM2.24878 16.5007C1.42427 16.5007 0.748047 17.1733 0.748047 17.9978V18.7485C0.748047 19.5731 1.42427 20.2485 2.24878 20.2485H21.751C22.5755 20.2485 23.248 19.5731 23.248 18.7485V17.9978C23.248 17.1733 22.5755 16.5007 21.751 16.5007H2.24878Z" fill="white"/>
</svg>