<svg xmlns="http://www.w3.org/2000/svg" width="24" height="24" viewBox="0 0 24 24" fill="none">
  <g clip-path="url(#clip0_5669_6339)">
    <path d="M24 8.47059V5.64706H22.5882V7.05882H20.4706V3.52941H16.9412V1.41176H17.6471V0H15.5294V3.52941H14.1176V0.705882H12.7059V3.52941H11.2941V0.705882H9.88235V3.52941V4.23529V9.17647H12.1412C12.4325 8.35487 13.2172 7.76471 14.1374 7.76471C15.3051 7.76471 16.2551 8.71468 16.2551 9.88235C16.2551 11.05 15.3051 12 14.1374 12C13.2172 12 12.4326 11.4098 12.1412 10.5882H8.47059V4.23529V3.52941V0H5.64706V1.41176H7.05882V3.52941H3.52941V7.05882H1.41176V5.64706H0V8.47059H3.52941V9.92941H0.705882V11.3412H3.52941V12.7059H0.705882V14.1176H3.52941V15.5294H0V18.3529H1.41176V16.9412H3.52941V20.4706H7.05882V22.5882H5.64706V24H8.47059V20.4706H9.88235V23.2941H11.2941V20.4706H12.7059V23.2941H14.1176V20.4706V19.7647V16.2353H10.4668C10.1754 17.0569 9.39082 17.6471 8.47059 17.6471C7.30296 17.6471 6.35294 16.6971 6.35294 15.5294C6.35294 14.3617 7.30296 13.4118 8.47059 13.4118C9.39082 13.4118 10.1754 14.0019 10.4668 14.8235H15.5294V19.7647V20.4706V24H18.3529V22.5882H16.9412V20.4706H20.4706V16.9412H22.5882V18.3529H24V15.5294H20.4706V14.1176H23.2941V12.7059H20.4706V11.3412H23.2941V9.92941H20.4706V8.47059H24Z" fill="white"/>
    <path d="M14.1365 10.5871C14.5264 10.5871 14.8424 10.271 14.8424 9.88118C14.8424 9.49133 14.5264 9.17529 14.1365 9.17529C13.7467 9.17529 13.4307 9.49133 13.4307 9.88118C13.4307 10.271 13.7467 10.5871 14.1365 10.5871Z" fill="white"/>
    <path d="M8.48909 16.234C8.87893 16.234 9.19497 15.918 9.19497 15.5281C9.19497 15.1383 8.87893 14.8223 8.48909 14.8223C8.09924 14.8223 7.7832 15.1383 7.7832 15.5281C7.7832 15.918 8.09924 16.234 8.48909 16.234Z" fill="white"/>
  </g>
  <defs>
    <clipPath id="clip0_5669_6339">
      <rect width="24" height="24" fill="white"/>
    </clipPath>
  </defs>
</svg>