<svg xmlns="http://www.w3.org/2000/svg" width="24" height="24" viewBox="0 0 24 24" fill="none">
  <g clip-path="url(#clip0_5669_6327)">
    <path d="M23.8539 4.6412C23.7207 4.46821 23.5148 4.3668 23.2964 4.3668H6.75908L5.99381 1.71461C5.90689 1.41343 5.63127 1.20605 5.3178 1.20605H0.703587C0.315019 1.20605 0 1.52107 0 1.90964C0 2.29821 0.315019 2.61323 0.703587 2.61323H4.78852L7.99443 14.5235C8.38563 14.3727 8.80999 14.2891 9.25371 14.2891H21.2362C21.3523 14.2891 21.4661 14.2989 21.5771 14.317L23.9766 5.25032C24.0325 5.03929 23.9871 4.81424 23.8539 4.6412Z" fill="white"/>
    <path d="M20.3136 18.505H9.25379C8.86953 18.505 8.55691 18.1924 8.55691 17.8082C8.55691 17.4239 8.86953 17.1113 9.25379 17.1113H21.2362C21.6248 17.1113 21.9398 16.7963 21.9398 16.4077C21.9398 16.0191 21.6248 15.7041 21.2362 15.7041H9.25379C8.09362 15.7041 7.14973 16.648 7.14973 17.8082C7.14973 18.3304 7.34139 18.8084 7.65749 19.1766C7.29336 19.5611 7.06934 20.0795 7.06934 20.6495C7.06934 21.8319 8.03123 22.7938 9.21359 22.7938C10.3959 22.7938 11.3578 21.8319 11.3578 20.6495C11.3578 20.3906 11.3117 20.1422 11.2272 19.9122H18.2999C18.2155 20.1421 18.1694 20.3904 18.1694 20.6493C18.1694 21.8316 19.1313 22.7935 20.3137 22.7935C21.496 22.7935 22.4579 21.8316 22.4579 20.6493C22.4579 19.4669 21.496 18.505 20.3136 18.505Z" fill="white"/>
  </g>
  <defs>
    <clipPath id="clip0_5669_6327">
      <rect width="24" height="24" fill="white"/>
    </clipPath>
  </defs>
</svg>